#tb 0: 1/25
#media_type 0: video
#codec_id 0: rawvideo
#dimensions 0: 720x576
#sar 0: 16/15
0,          9,          9,        1,  1244160, 0xfb65caee
0,         10,         10,        1,  1244160, 0x6222e690
0,         11,         11,        1,  1244160, 0x020ac648
0,         12,         12,        1,  1244160, 0xb76691ca
0,         13,         13,        1,  1244160, 0xe0fd7404
0,         14,         14,        1,  1244160, 0x3ab29705
0,         15,         15,        1,  1244160, 0xbe807835
0,         16,         16,        1,  1244160, 0x77d358fd
0,         17,         17,        1,  1244160, 0x359b174f
0,         18,         18,        1,  1244160, 0xe20f0e7f
0,         19,         19,        1,  1244160, 0x988966ec
0,         20,         20,        1,  1244160, 0xd078da72
0,         21,         21,        1,  1244160, 0x276d97f7
0,         22,         22,        1,  1244160, 0xf8ee7ca0
0,         23,         23,        1,  1244160, 0x776bed72
0,         24,         24,        1,  1244160, 0xb9bf92b2
0,         25,         25,        1,  1244160, 0x30e01094
0,         26,         26,        1,  1244160, 0xbc5f3139
0,         27,         27,        1,  1244160, 0x44324902
0,         28,         28,        1,  1244160, 0x64aab8f5
0,         29,         29,        1,  1244160, 0x0a05aeac
0,         30,         30,        1,  1244160, 0x31e5aa36
0,         31,         31,        1,  1244160, 0xa685405f
0,         32,         32,        1,  1244160, 0x54a6e776
0,         33,         33,        1,  1244160, 0x9af4d8c9
0,         34,         34,        1,  1244160, 0xf709ac9a
0,         35,         35,        1,  1244160, 0x12a9441d
0,         36,         36,        1,  1244160, 0xf3f1bd5e
0,         37,         37,        1,  1244160, 0x7bcef716
0,         38,         38,        1,  1244160, 0xe3a2f129
